<?xml version="1.0" standalone="no"?>
<!DOCTYPE svg PUBLIC "-//W3C//DTD SVG 1.1//EN" "http://www.w3.org/Graphics/SVG/1.1/DTD/svg11.dtd" >
<svg xmlns="http://www.w3.org/2000/svg">
<metadata>Generated by IcoMoon</metadata>
<defs>
<font id="icomoon" horiz-adv-x="1024">
<font-face units-per-em="1024" ascent="960" descent="-64" />
<missing-glyph horiz-adv-x="1024" />
<glyph unicode="&#x20;" horiz-adv-x="512" d="" />
<glyph unicode="&#xe900;" horiz-adv-x="725" d="M361.896-64l-295.945 82.246-65.951 740.511h724.678l-66.021-740.399-296.762-82.358z" />
<glyph unicode="&#xe901;" horiz-adv-x="725" d="M602.137 65.506l56.413 632.701h-296.213v-699.253l239.8 66.552z" />
<glyph unicode="&#xe902;" horiz-adv-x="725" d="M362.338 187.691l-0.399-0.102-101.036 27.311-6.459 72.431h-91.071l12.709-142.601 185.839-51.646 0.417 0.115v94.492zM134.852 607.386l8.247-90.819h219.24v90.819h-227.487zM151.19 423.566l8.13-90.821h203.018v90.821h-211.148z" />
<glyph unicode="&#xe903;" horiz-adv-x="725" d="M434.261 959.999h109.882v-39.999h-63.928v-8.004h63.928v-91.997h-109.882v42.003h63.932v7.997h-63.929v89.999h-0.003zM302.405 959.999h109.878v-39.999h-63.928v-8.004h63.928v-91.997h-109.875v42.003h63.929v7.997h-63.934v89.999h0.002zM170.55 959.999h109.877v-45.998h-63.926v-46.005h63.932v-45.998h-109.883v138.001z" />
<glyph unicode="&#xe904;" horiz-adv-x="725" d="M572.908 423.563l16.376 183.821h-227.257v-90.818h127.835l-8.253-93.003h-119.581v-90.821h111.715l-10.538-117.792-101.181-27.336v-94.487l185.984 51.6 1.361 15.341 21.326 239.107 2.213 24.387z" />
<glyph unicode="&#xe905;" glyph-name="facebook-1" d="M874 960h-723.999c-82.703 0-150.001-67.297-150.001-150v-723.999c0-82.703 67.297-150.001 150.001-150.001h301.998v361.999h-119.997v180.001h119.997v122c0 99.258 80.743 180 180.001 180h182v-180h-182v-122h182l-30-180.001h-152v-361.999h242c82.703 0 150 67.297 150 150.001v723.999c0 82.703-67.297 150-150 150z" />
<glyph unicode="&#xe906;" glyph-name="facebook" horiz-adv-x="563" d="M466.943 790.014h96.257v162.816c-46.607 4.846-93.433 7.239-140.289 7.168-139.264 0-234.496-84.992-234.496-240.64v-134.144h-157.184v-182.27h157.184v-466.944h188.415v466.944h156.673l23.552 182.27h-180.225v116.224c0 53.76 14.337 88.576 90.113 88.576z" />
<glyph unicode="&#xe907;" glyph-name="github" horiz-adv-x="973" d="M486.525 934.5c-282.879 0-511.999-223.318-511.999-498.743 0-220.397 146.688-407.303 350.080-473.197 25.6-4.695 34.985 10.742 34.985 23.982 0 11.843-0.425 43.223-0.64 84.803-142.418-30.075-172.457 66.908-172.457 66.908-23.296 57.564-56.96 72.96-56.96 72.96-46.377 30.92 3.584 30.285 3.584 30.285 51.415-3.471 78.423-51.389 78.423-51.389 45.65-76.257 119.849-54.221 149.12-41.492 4.608 32.271 17.792 54.221 32.425 66.698-113.705 12.477-233.216 55.368-233.216 246.454 0 54.434 19.84 98.928 52.695 133.822-5.76 12.604-23.040 63.315 4.48 132.002 0 0 42.88 13.365 140.8-51.134 40.96 11.081 84.48 16.58 128 16.834 43.518-0.254 87.037-5.752 127.998-16.834 97.279 64.5 140.159 51.134 140.159 51.134 27.52-68.687 10.241-119.398 5.12-132.002 32.64-34.894 52.48-79.388 52.48-133.822 0-191.599-119.679-233.762-233.599-246.029 17.92-14.971 34.56-45.553 34.56-92.288 0-66.744-0.64-120.371-0.64-136.571 0-13.071 8.96-28.677 35.2-23.685 204.842 65.475 351.402 252.503 351.402 472.562 0 275.425-229.248 498.743-512 498.743z" />
<glyph unicode="&#xe908;" horiz-adv-x="725" d="M65.626 18.246l-65.626 740.514h721.126l-65.697-740.398-295.309-82.363-294.494 82.246z" />
<glyph unicode="&#xe909;" horiz-adv-x="725" d="M360.563-1.046l238.624 66.554 56.142 632.704h-294.765v-699.258z" />
<glyph unicode="&#xe90a;" horiz-adv-x="725" d="M360.563 423.564h-119.46l-8.252 93.003h127.712v90.822h-226.374l2.162-24.366 22.188-250.277h202.024v90.818z" />
<glyph unicode="&#xe90b;" horiz-adv-x="725" d="M360.563 187.696l-0.395-0.107-100.541 27.314-6.431 72.433h-90.624l12.649-142.602 184.927-51.646 0.416 0.117v94.492z" />
<glyph unicode="&#xe90c;" horiz-adv-x="725" d="M67.093 959.999h45.879v-45.6h41.966v45.6h45.881v-138.088h-45.879v46.239h-41.966v-46.239h-45.878v138.088h-0.003z" />
<glyph unicode="&#xe90d;" horiz-adv-x="725" d="M261.15 914.207h-40.39v45.792h126.677v-45.792h-40.407v-92.295h-45.877v92.295h-0.003z" />
<glyph unicode="&#xe90e;" horiz-adv-x="725" d="M367.542 959.999h47.838l29.427-48.52 29.397 48.52h47.857v-138.088h-45.689v68.444l-31.564-49.098h-0.788l-31.586 49.098v-68.444h-44.891v138.088z" />
<glyph unicode="&#xe90f;" horiz-adv-x="725" d="M544.894 959.999h45.891v-92.444h64.517v-45.643h-110.408v138.088z" />
<glyph unicode="&#xe910;" horiz-adv-x="725" d="M360.251 423.564v-90.818h111.165l-10.478-117.788-100.688-27.341v-94.487l185.073 51.602 1.356 15.343 21.216 239.102 2.202 24.387h-209.848z" />
<glyph unicode="&#xe911;" horiz-adv-x="725" d="M360.251 607.386v-90.821h218.062l1.812 20.415 4.113 46.041 2.158 24.365h-226.145z" />
<glyph unicode="&#xe912;" glyph-name="instagram-1" d="M704 960h-384c-176.701 0-320-143.296-320-320v-384c0-176.707 143.299-320 320-320h384c176.704 0 320 143.299 320 320v384c0 176.704-143.296 320-320 320zM928 256c0-123.52-100.48-224-224-224h-384c-123.52 0-224 100.48-224 224v384c0 123.52 100.48 224 224 224h384c123.52 0 224-100.48 224-224v-384zM512 704c-141.373 0-256-114.624-256-256 0-141.379 114.627-256 256-256 141.376 0 256 114.627 256 256 0 141.376-114.624 256-256 256zM512 288c-88.192 0-160 71.808-160 160 0 88.256 71.808 160 160 160s160-71.744 160-160c0-88.192-71.808-160-160-160zM787.2 689.089c18.84 0 34.112 15.272 34.112 34.111s-15.272 34.112-34.112 34.112c-18.84 0-34.112-15.272-34.112-34.112s15.272-34.111 34.112-34.111z" />
<glyph unicode="&#xe913;" glyph-name="instagram" d="M785.408 782.848c-12.15 0-24.028-3.603-34.135-10.355-10.102-6.751-17.976-16.347-22.63-27.573-4.649-11.227-5.862-23.58-3.492-35.498s8.218-22.866 16.814-31.458c8.591-8.592 19.538-14.444 31.457-16.815s24.269-1.154 35.497 3.496c11.228 4.65 20.823 12.526 27.576 22.629 6.748 10.103 10.353 21.982 10.353 34.134 0 16.295-6.472 31.922-17.997 43.445-11.52 11.522-27.146 17.995-43.443 17.995zM1020.928 658.944c-0.993 42.481-8.95 84.511-23.552 124.416-13.020 34.144-33.28 65.061-59.392 90.624-25.354 26.244-56.34 46.378-90.624 58.88-39.798 15.045-81.879 23.183-124.416 24.064-54.272 3.072-71.68 3.072-210.944 3.072s-156.672 0-210.944-3.072c-42.54-0.881-84.616-9.019-124.416-24.064-34.218-12.628-65.181-32.745-90.624-58.88-26.244-25.353-46.378-56.343-58.88-90.624-15.045-39.8-23.183-81.876-24.064-124.416-3.072-54.272-3.072-71.68-3.072-210.944s0-156.672 3.072-210.944c0.881-42.537 9.019-84.618 24.064-124.416 12.502-34.284 32.636-65.27 58.88-90.624 25.443-26.132 56.406-46.254 90.624-58.88 39.8-15.043 81.876-23.183 124.416-24.064 54.272-3.072 71.68-3.072 210.944-3.072s156.672 0 210.944 3.072c42.537 0.881 84.618 9.021 124.416 24.064 34.284 12.503 65.27 32.635 90.624 58.88 26.225 25.467 46.505 56.412 59.392 90.624 14.602 39.905 22.559 81.935 23.552 124.416 0 54.272 3.072 71.68 3.072 210.944s0 156.672-3.072 210.944zM928.768 243.2c-0.374-32.502-6.257-64.701-17.408-95.232-8.177-22.282-21.304-42.414-38.4-58.88-16.609-16.922-36.7-30.024-58.88-38.4-30.531-11.151-62.73-17.034-95.232-17.408-51.2-2.56-70.144-3.072-204.8-3.072s-153.6 0-204.8 3.072c-33.746-0.63-67.349 4.562-99.328 15.36-21.208 8.801-40.378 21.873-56.32 38.4-16.994 16.451-29.96 36.598-37.888 58.88-12.5 30.966-19.433 63.903-20.48 97.28 0 51.2-3.072 70.144-3.072 204.8s0 153.6 3.072 204.8c0.229 33.226 6.295 66.153 17.92 97.28 9.014 21.611 22.849 40.875 40.448 56.32 15.555 17.604 34.78 31.585 56.32 40.96 31.209 11.262 64.102 17.148 97.28 17.408 51.2 0 70.144 3.072 204.8 3.072s153.6 0 204.8-3.072c32.502-0.373 64.701-6.259 95.232-17.408 23.265-8.635 44.15-22.674 60.928-40.96 16.778-15.728 29.891-34.956 38.4-56.32 11.382-31.177 17.27-64.091 17.408-97.28 2.56-51.2 3.072-70.144 3.072-204.8s-0.512-153.6-3.072-204.8zM512 710.656c-51.927-0.101-102.658-15.592-145.784-44.514s-76.711-69.979-96.513-117.982c-19.801-48.003-24.93-100.8-14.737-151.713 10.192-50.918 35.249-97.669 72.002-134.354 36.753-36.68 83.555-61.645 134.491-71.736 50.936-10.097 103.723-4.864 151.687 15.032 47.964 19.891 88.955 53.56 117.791 96.742 28.841 43.182 44.232 93.942 44.232 145.869 0.067 34.555-6.697 68.782-19.907 100.712-13.204 31.931-32.594 60.936-57.052 85.346s-53.504 43.744-85.458 56.889c-31.959 13.146-66.196 19.844-100.751 19.708zM512 277.504c-33.721 0-66.684 9.999-94.723 28.733s-49.891 45.363-62.795 76.518c-12.904 31.15-16.281 65.433-9.702 98.506s22.817 63.453 46.661 87.297c23.844 23.844 54.224 40.082 87.297 46.661s67.356 3.202 98.506-9.702c31.155-12.904 57.784-34.758 76.518-62.795s28.733-61.002 28.733-94.723c0-22.39-4.408-44.559-12.979-65.244-8.566-20.69-21.125-39.48-36.956-55.316-15.836-15.831-34.627-28.39-55.316-36.956-20.685-8.571-42.854-12.979-65.244-12.979z" />
<glyph unicode="&#xe914;" horiz-adv-x="4483" d="M4272.377 885.095l187.254-1.029c0 0-348.132-471.734-376.555-510.181-9.244-12.451-23.275-25.877-30.388-42.521-17.962-41.84-36.421-133.618-36.421-133.618l-171.34-0.85c0 0 26.652 95.661 25.572 146.617-0.969 44.519-23.69 88.975-36.449 133.621-12.869 45.186-30.36 133.621-30.36 133.621h176.128l24.299-97.18 268.26 371.52z" />
<glyph unicode="&#xe915;" horiz-adv-x="4483" d="M3917.796 785.612c34.567-20.835 55.766-135.746 55.766-135.746s-180.805-2.668-279.22-2.668h-85.020l-103.258-449.45h-157.89c0 0 98.249 488.437 121.469 576.992 7.528 28.664 51.504 23.75 125.758 23.75h118.618c76.606 0 166.137 9.775 203.776-12.878z" />
<glyph unicode="&#xe916;" horiz-adv-x="4483" d="M3182.647 566.715c0 0 4.926 28.852-16.688 62.256-18.46 28.484-35.536 35.104-84.106 36.62-137.216 4.312-134.559-97.36-134.559-97.36l235.354-1.517zM3331.459 683.144c20.12-72.521-18.211-242.943-18.211-242.943s-200.15 3.343-309.746 0c-34.096-1.038-74.89 3.706-85.047-12.15-14.281-22.224 5.203-56.425 21.753-70.875 19.013-16.641 56.043-18.529 69.355-20.225 88.977-11.3 275.207-2.914 275.207-2.914l-32.27-142.848c0 0-263.168-13.187-394.794 18.222-25.987 6.191-50.342 18.7-66.809 36.441-4.483 4.852-8.386 11.472-12.62 17.181-3.404 4.561-13.298 19.558-17.737 31.409-30.061 80.107 3.523 233.585 36.446 315.821 3.819 9.534 8.607 21.615 13.672 31.888 6.31 12.808 11.651 27.266 16.688 34.921 3.404 5.283 7.611 8.686 11.126 13.668 4.068 5.89 8.801 11.601 13.174 16.694 12.15 14.096 25.932 24.059 42.51 36.44 54.853 41.062 154.098 72.949 273.325 60.74 44.862-4.613 112.668-20.647 145.768-66.81 8.856-12.33 13.229-36.8 18.211-54.659z" />
<glyph unicode="&#xe917;" horiz-adv-x="4483" d="M2607.181 799.037l153.116 0.909c0 0-85.33-404.804-128.816-602.201h-176.142c-123.107 0-232.736-15.244-279.38 72.889-45.247 85.57-2.067 226.298 18.219 321.901 14.336 67.659 44.527 205.952 44.527 205.952l158.64 1.458c0 0-44.826-215.306-63.474-322.809-6.681-38.508-20.458-74.769-6.072-103.252 13.666-27.094 32.796-29.032 91.1-30.369 18.471-0.429 78.961 0 78.961 0l109.322 455.521z" />
<glyph unicode="&#xe918;" horiz-adv-x="4483" d="M1890.5 507.505c16.033 56.968 39.413 118.737 36.438 170.061-3.213 54.901-49.249 104.888-78.95 115.392-89.462 31.587-173.217-12.57-206.499-48.581-43.069-46.652-57.646-101.134-72.889-176.14-11.353-55.689-20.649-114.483 0-157.909 36.56-76.775 150.561-60.012 273.311-60.74 18.219 48.828 33.283 103.679 48.59 157.917zM2103.080 732.228c17.491-127.182-49.62-267.55-95.844-389.619 47.132-4.254 88.435 0.659 91.41-2.856 3.094-4.561-31.586-145.71-43.678-146.069-37.409-0.977-161.366-2.006-213.058-2.006-168.664 0-326.454-10.993-406.924 72.881-32.677 34.074-55.268 92.506-60.74 133.621-9.114 68.636 2.308 144.19 18.222 206.499 14.394 56.248 32.857 109.33 60.74 157.92 70.872 123.717 194.17 215.547 400.852 194.351 40.083-4.133 97.659-21.684 133.618-42.511 2.488-1.466 11.181-8.385 13.179-9.603 48.59-30.919 92.868-104.708 102.223-172.607z" />
<glyph unicode="&#xe919;" horiz-adv-x="4483" d="M1356.817 798.305c-10.204-46.463-20.408-99.126-31.16-145.040h-170.061c13.179 50.895 23.264 101.492 36.441 145.769 54.421 0 105.018-0.729 164.781-0.729z" />
<glyph unicode="&#xe91a;" horiz-adv-x="4483" d="M1149.526 610.75h163.981c-21.435-118.684-63.887-310.12-97.172-443.37-20.834-83.392-34.741-144.254-91.108-188.283-5.043-3.952-7.948-2.073-12.141-6.078-10.392-9.902-58.434-21.385-85.031-24.291-43.249-4.683-92.138-0.609-145.281 0.482 13.907 50.835 29.641 111.873 42.031 157.43 129.547-15.676 132.832 106.773 157.909 224.721 14.519 68.146 58.495 252.053 66.812 279.389z" />
<glyph unicode="&#xe91b;" horiz-adv-x="4483" d="M766.885 300.998l-3.515-9.105c-59.89-116.609-165.996-188.161-317.349-191.316-70.753-1.459-138.171 16.694-182.209 36.441-95.045 42.698-174.982 121.889-218.642 206.499-62.626 121.291-73.918 290.013 56.298 416.038 2.006 0-15.794-27.326-13.787-27.326l-3.584-11.661c-93.836-293.778 195.261-545.532 476.288-516.741 67.537 6.919 153.666 43.91 206.499 97.172z" />
<glyph unicode="&#xe91c;" horiz-adv-x="4483" d="M596.826 422.475c70.7-0.49 144.55 32.555 188.28 78.95-38.259-97.119-149.036-159.548-297.602-139.69-124.386 16.641-242.882 141.816-255.091 267.239-8.926 91.282 22.893 145.762 75.315 211.843-18.219-34.562-25.027-61.22-26.726-78.222-19.917-197.455 157.732-339.091 315.824-340.12z" />
<glyph unicode="&#xe91d;" horiz-adv-x="4483" d="M778.008 667.725c-10.993-25.21-74.279-72.82-102.223-78.773-110.658-23.569-181.533 28.904-218.649 88.615-5.524 8.927-15.725 33.277-17.552 39.476-14.397 48.95-7.777 122.988 35.17 161.315-12.938-36.44-14.823-78.771-8.018-106.286 4.126-16.642 16.694-45.683 29.273-63.955 22.893-33.285 37.409-41.372 66.812-59.043 13.237-7.957 27.446-14.336 33.584-16.093 27.875-8.198 86.727-29.821 181.602 34.744z" />
<glyph unicode="&#xe91e;" d="M0 960h1024v-1024h-1024v1024z" />
<glyph unicode="&#xe91f;" d="M269.247 104.27l78.363 47.425c15.117-26.805 28.87-49.484 61.857-49.484 31.621 0 51.556 12.37 51.556 60.481v327.193h96.231v-328.553c0-99.67-58.423-145.036-143.661-145.036-76.981 0-121.665 39.87-144.348 87.982z" />
<glyph unicode="&#xe920;" d="M609.524 114.584l78.353 45.366c20.627-33.685 47.435-58.428 94.86-58.428 39.873 0 65.298 19.935 65.298 47.43 0 32.995-26.118 44.681-70.111 63.921l-24.051 10.317c-69.429 29.551-115.484 66.669-115.484 145.031 0 72.175 54.989 127.167 140.913 127.167 61.177 0 105.168-21.312 136.784-76.989l-74.925-48.114c-16.497 29.554-34.364 41.239-61.857 41.239-28.182 0-46.056-17.871-46.056-41.239 0-28.87 17.874-40.558 59.112-58.431l24.056-10.309c81.797-35.059 127.853-70.798 127.853-151.218 0-86.615-68.049-134.038-159.468-134.038-89.357 0-147.098 42.616-175.276 98.295z" />
<glyph unicode="&#xe921;" glyph-name="left-arrow" d="M392.837 225.83c-16.663-16.661-43.677-16.661-60.34 0l-192 192c-16.662 16.661-16.662 43.678 0 60.339l192 192c16.663 16.662 43.677 16.662 60.34 0s16.662-43.677 0-60.34l-119.164-119.163h579.66c23.565 0 42.667-19.102 42.667-42.667s-19.102-42.667-42.667-42.667h-579.66l119.164-119.164c16.662-16.661 16.662-43.678 0-60.339z" />
<glyph unicode="&#xe924;" glyph-name="mail" d="M512 960c-282.784 0-512-229.216-512-512s229.216-512 512-512 512 229.216 512 512-229.216 512-512 512zM256 704h512c9.152 0 18.016-1.952 26.144-5.664l-282.144-329.152-282.144 329.184c8.128 3.712 16.992 5.664 26.144 5.664zM192 256v384c0 1.344 0.064 2.688 0.128 4l187.648-218.944-185.6-185.6c-1.44 5.344-2.208 10.88-2.208 16.544zM768 192h-512c-5.664 0-11.2 0.768-16.544 2.208l182.112 182.112 90.432-105.504 90.432 105.504 182.112-182.112c-5.344-1.44-10.88-2.208-16.544-2.208zM832 256c0-5.664-0.768-11.2-2.208-16.544l-185.6 185.6 187.68 218.944c0.096-1.312 0.128-2.656 0.128-4v-384z" />
<glyph unicode="&#xe925;" horiz-adv-x="3641" d="M3389.963 537.354c-3.277-0.649-6.554-7.769-6.554-11.651-0.66-25.887-1.32-94.499-1.32-141.096 0-1.297 1.957-3.882 3.937-3.882 9.83-0.649 33.473-1.297 53.817-1.297 28.217 0 44.624 3.882 53.794 7.764 23.62 11.651 34.793 36.896 34.793 64.728 0 62.78-44.624 86.731-110.911 86.731-4.597 0.642-17.704 0.642-27.557-1.297zM3559.265 248.040c0 64.073-47.9 99.676-134.531 99.676-3.937 0-31.494 0.646-38.047-0.649-1.98-0.649-4.597-1.943-4.597-3.889 0-45.95-0.66-119.089 1.32-147.563 1.297-12.299 10.49-29.776 21.641-34.955 11.81-6.474 38.73-7.762 57.094-7.762 51.837 0 97.121 28.474 97.121 95.141zM3256.092 572.951c6.554 0 26.237-1.939 76.777-1.939 47.9 0 85.97 1.29 132.551 1.29 57.094 0 135.851-20.064 135.851-104.2 0-41.426-29.537-74.436-68.267-90.617-1.957-0.649-1.957-1.939 0-2.585 55.137-13.596 103.697-47.254 103.697-110.681 0-62.136-39.367-101.613-96.461-126.211-34.793-14.884-78.097-20.064-122.061-20.064-33.473 0-123.381 3.882-173.238 2.587-5.257 1.943 4.597 25.245 9.17 29.127 11.833 0.649 21.003 1.295 33.473 5.177 17.727 4.531 19.684 9.708 22.323 36.243 1.297 22.655 1.297 102.917 1.297 159.871 0 78.318 0.66 131.388 0 157.277-0.637 20.061-7.873 26.535-22.3 30.424-11.15 1.936-29.537 4.528-44.624 6.467-3.277 3.24 7.873 25.245 11.81 27.832zM2877.44 170.369c15.77-12.293 46.603-17.469 74.16-17.469 35.43 0 70.884 6.467 104.994 36.891 34.793 31.064 59.073 78.96 59.073 155.334 0 73.139-28.217 132.685-85.97 167.633-32.814 20.068-74.82 28.479-123.381 28.479-14.427 0-28.217-0.649-36.75-4.531-1.957-1.295-6.554-7.12-6.554-10.354-1.32-12.948-1.32-112.617-1.32-170.874 0-60.193 0-144.329 1.32-154.037 0-9.714 4.597-24.599 14.427-31.073zM2728.482 572.951c12.47 0 60.37-1.939 83.354-1.939 41.324 0 70.861 1.939 148.958 1.939 65.627 0 120.741-17.479 160.108-50.481 47.9-40.778 72.841-97.091 72.841-165.695 0-97.733-45.284-154.044-90.544-186.407-45.284-33.009-104.357-52.424-188.348-52.424-44.624 0-121.401 1.297-185.048 1.946h-0.66c-3.277 5.819 5.257 28.472 10.49 29.12 17.067 1.943 21.663 2.592 30.197 5.825 13.767 5.179 16.407 12.299 18.386 36.243 1.957 44.662 1.297 98.381 1.297 159.223 0 43.365 0.66 128.157-0.66 155.341-1.957 22.646-11.81 28.472-31.494 32.361-9.853 1.939-22.96 4.531-41.347 6.467-2.617 4.535 9.193 24.599 12.47 28.481z" />
<glyph unicode="&#xe926;" horiz-adv-x="3641" d="M1934.457 145.13c-16.404 1.943-28.217 4.528-42.658 11.002-1.966 1.297-5.25 7.764-5.25 10.356-1.315 22.653-1.315 87.377-1.315 130.742 0 34.953-5.901 65.37-20.997 86.728-17.72 24.599-43.311 38.835-76.122 38.835-28.875 0-67.593-19.42-99.747-46.603-0.658-0.642-5.907-5.177-5.25 1.943 0 7.122 1.313 21.358 1.971 31.066 0.658 9.066-4.592 13.594-4.592 13.594-21.003-10.354-80.063-23.95-101.717-25.887-15.749-3.24-19.684-18.125-3.279-23.302h0.658c17.713-5.179 29.525-11.005 38.712-16.83 6.563-5.177 5.905-12.299 5.905-18.125 0.658-48.542 0.658-122.973-1.308-163.751-0.655-16.181-5.25-22-17.062-24.592l1.308 0.649c-9.184-1.946-16.404-3.882-27.562-5.179-3.937-3.88-3.937-24.596 0-29.127 7.22 0 45.281 1.943 76.784 1.943 43.311 0 65.622-1.943 76.777-1.943 4.592 5.177 5.907 24.599 3.279 29.127-12.47 0.649-21.654 1.939-30.183 4.531-11.812 2.592-15.098 8.41-15.754 22.007-1.308 34.304-1.308 106.792-1.308 155.983 0 13.594 3.934 20.068 7.871 23.95 15.091 12.939 39.374 22.005 61.028 22.005 20.999 0 34.782-6.474 45.281-14.891 14.436-11.644 19.028-28.472 20.999-40.771 3.279-27.832 1.971-82.848 1.971-130.742 0-25.889-1.971-32.363-11.812-35.597-4.592-1.943-16.407-4.535-30.19-5.825-4.592-4.528-3.279-24.599 0-29.127 19.033 0 41.345 1.943 74.156 1.943 40.682 0 66.935-1.943 77.435-1.943 3.279 3.882 4.592 22.653 1.966 27.832h0.005zM2116.233 392.372c-34.782 0-56.438-26.538-56.438-67.957 0-42.070 19.028-90.613 72.843-90.613 9.184 0 26.249 3.882 34.12 12.941 12.47 11.651 21.003 34.955 21.003 59.547 0 53.719-26.911 86.082-71.528 86.082zM2111.634 106.293c-13.121 0-22.312-3.88-28.212-7.12-27.568-17.472-40.032-34.299-40.032-54.368 0-18.767 7.214-33.651 22.969-46.599 19.026-16.181 45.274-23.95 78.741-23.95 66.935 0 96.468 35.601 96.468 70.549 0 24.599-12.468 40.778-38.059 49.837-18.377 7.771-51.844 11.651-91.876 11.651zM2116.233-61.986c-40.032 0-68.908 8.417-93.842 27.184-24.282 18.125-34.782 45.309-34.782 64.075 0 5.177 1.315 19.42 13.128 32.361 7.214 7.771 22.963 22.655 60.373 47.896 1.306 0.646 1.964 1.295 1.964 2.592 0 1.295-1.313 2.592-2.621 3.234-30.845 11.651-40.032 30.422-42.66 40.778v1.297c-0.651 3.88-1.964 7.762 3.941 11.651 4.594 3.234 11.157 7.116 18.371 11.644 11.157 6.474 22.969 13.594 30.19 19.422 1.315 1.295 1.313 2.585 1.313 3.88 0 1.297-1.313 2.592-2.626 3.234-45.932 14.891-68.902 48.549-68.902 99.030 0 33.009 15.091 62.785 41.995 81.551 18.377 14.243 64.309 31.714 94.499 31.714h1.971c30.838-0.642 47.903-7.116 72.178-15.533 13.128-4.531 25.598-6.467 42.66-6.467 25.586 0 36.737 7.762 45.93 16.821 0.66-1.29 1.98-4.528 2.64-12.941 0.637-8.417-1.98-20.71-8.556-29.776-5.234-7.116-17.044-12.299-28.859-12.299h-3.284c-11.812 1.297-17.062 2.592-17.062 2.592l-2.624-1.295c-0.655-1.297 0-2.585 0.658-4.531l0.658-1.295c1.308-5.825 3.934-23.297 3.934-27.832 0-53.073-21.654-76.368-44.624-93.844-22.312-16.181-47.903-26.538-76.777-29.129-0.658 0-3.279 0-9.184-0.646-3.286 0-7.878-0.649-8.536-0.649h-0.655c-5.25-1.29-18.371-7.764-18.371-18.767 0-9.708 5.905-21.358 34.117-23.302 5.907-0.649 11.812-0.649 18.377-1.297 37.403-2.585 83.998-5.825 105.652-12.941 30.194-11.002 49.218-37.54 49.218-69.259 0-47.894-34.782-92.554-92.526-120.381-28.219-12.297-56.438-18.771-87.277-18.771zM2490.277 389.136c-13.79 0-26.26-3.234-35.43-9.705-25.6-15.533-38.73-46.606-38.73-91.907 0-84.792 43.327-144.338 104.994-144.338 18.386 0 32.814 5.179 45.284 15.533 19.024 15.54 28.877 46.606 28.877 89.971 0 84.136-42.644 140.447-104.994 140.447zM2502.087 112.121c-111.548 0-151.575 80.903-151.575 156.629 0 53.073 21.641 93.851 64.944 122.978 30.857 18.767 67.607 29.123 100.42 29.123 85.288 0 145.021-60.193 145.021-146.924 0-58.896-23.62-105.495-68.904-133.976-21.663-14.236-59.051-27.83-89.907-27.83v0zM1332.697 389.136c-13.783 0-26.246-3.234-35.44-9.705-25.589-15.533-38.716-46.606-38.716-91.907 0-84.792 43.311-144.338 104.996-144.338 18.375 0 32.811 5.179 45.281 15.533 19.026 15.54 28.875 46.606 28.875 89.971 0 84.136-42.002 140.447-104.996 140.447zM1344.51 112.121c-111.559 0-151.591 80.903-151.591 156.629 0 53.073 21.656 93.851 64.965 122.978 30.847 18.767 67.593 29.123 100.404 29.123 85.313 0 145.028-60.193 145.028-146.924 0-58.896-23.627-105.495-68.906-133.976-20.999-14.236-58.402-27.83-89.9-27.83zM594.446 118.593c-1.315 1.939-2.628 7.764-1.973 14.887 0 5.177 1.315 8.417 1.973 9.705 13.776 1.946 20.997 3.889 28.868 5.825 13.128 3.24 18.377 10.356 19.033 26.538 1.973 38.835 1.973 112.624 1.315 163.751v1.295c0 5.825 0 12.948-7.22 18.125-10.499 6.467-22.969 12.295-39.374 16.83-5.907 1.936-9.842 5.177-9.186 9.059 0 3.882 3.937 8.41 12.47 9.708 21.656 1.943 78.086 15.533 100.398 25.24 1.315-1.29 3.286-5.179 3.286-10.356l-0.658-7.116c-0.658-7.12-1.313-15.54-1.313-23.95 0-2.585 2.626-4.528 5.25-4.528 1.313 0 2.626 0.646 3.941 1.295 41.995 32.361 80.056 44.014 99.74 44.014 32.16 0 57.094-14.891 76.126-45.957 1.308-1.943 2.621-2.587 4.594-2.587 1.313 0 3.277 0.644 3.934 1.939 38.719 29.127 77.435 46.606 103.026 46.606 61.030 0 97.125-44.662 97.125-120.388 0-21.358 0-49.191-0.658-74.436 0-22.649-0.655-43.365-0.655-58.25 0-3.234 4.592-13.59 11.812-15.533 9.184-4.531 21.654-6.474 38.061-9.059h0.655c1.315-4.531-1.313-21.358-3.934-24.599-3.941 0-9.849 0-16.407 0.649-12.47 0.649-30.188 1.295-49.873 1.295-40.687 0-61.686-0.646-82.034-1.943-1.306 5.177-1.964 20.71 0 24.599 11.815 1.936 17.72 3.882 24.94 5.825 13.128 3.882 16.407 9.708 17.062 26.535 0 12.293 2.621 117.148-1.313 142.393-3.937 25.889-23.625 56.306-66.935 56.306-16.407 0-41.998-6.474-66.935-25.24-1.308-1.295-2.621-4.528-2.621-6.474v-0.646c2.621-13.59 2.621-29.129 2.621-53.073v-42.068c0-29.129-0.658-56.313 0-77.023 0-14.243 8.533-17.476 15.754-20.068 3.937-0.642 6.558-1.29 9.842-1.939 5.907-1.295 11.812-2.592 20.999-4.528 1.313-2.592 1.313-11.005-0.658-18.125-0.658-3.882-1.971-5.825-2.621-6.474-22.312 0.649-45.281 1.297-78.748 1.297-9.842 0-26.906-0.649-41.347-0.649-11.812 0-22.967-0.649-29.525-0.649-0.658 1.297-1.971 5.825-1.971 12.948 0 5.825 1.313 10.354 2.628 11.651 3.277 0.649 5.901 1.29 9.184 1.29 7.871 1.295 14.434 2.592 20.999 3.887 11.155 3.234 15.091 9.059 15.747 23.297 1.973 32.361 3.937 124.917-0.655 148.218-7.871 37.54-29.528 56.311-64.309 56.311-20.341 0-45.937-9.708-66.935-25.245-3.279-2.587-5.905-9.059-5.905-14.884v-38.188c0-46.599 0-104.853 0.655-130.094 0.658-7.764 3.279-16.83 18.377-20.064 3.279-0.646 8.529-1.943 15.091-2.592l11.812-1.936c1.315-3.889 0.658-19.422-1.971-24.599-6.563 0-14.434 0.649-23.625 0.649-13.778 0.649-31.498 1.295-51.182 1.295-22.969 0-39.374-0.646-52.502-1.295-9.184 1.295-16.404 1.295-24.276 1.295z" />
<glyph unicode="&#xe927;" horiz-adv-x="3641" d="M249.267-36.748l-26.905 9.066c0 0 3.285 135.273-45.932 144.978-32.811 37.54 5.249 1592.202 123.365 5.179 0 0-40.68-20.064-47.9-54.368-7.878-33.658-2.628-104.855-2.628-104.855z" />
<glyph unicode="&#xe928;" horiz-adv-x="3641" d="M249.267-36.748l-26.905 9.066c0 0 3.285 135.273-45.932 144.978-32.811 37.54 5.249 1592.202 123.365 5.179 0 0-40.68-20.064-47.9-54.368-7.878-33.658-2.628-104.855-2.628-104.855z" />
<glyph unicode="&#xe929;" horiz-adv-x="3641" d="M263.707 93.999c0 0 235.584 152.749 180.461 470.544-53.152 231.061-178.495 306.787-192.273 335.915-15.091 20.71-29.532 56.954-29.532 56.954l9.849-642.702c0-0.646-20.348-196.76 31.496-220.711z" />
<glyph unicode="&#xe92a;" horiz-adv-x="3641" d="M263.707 93.999c0 0 235.584 152.749 180.461 470.544-53.152 231.061-178.495 306.787-192.273 335.915-15.091 20.71-29.532 56.954-29.532 56.954l9.849-642.702c0-0.646-20.348-196.76 31.496-220.711z" />
<glyph unicode="&#xe92b;" horiz-adv-x="3641" d="M208.584 85.586c0 0-221.149 148.867-208.022 410.993 12.464 262.131 168.647 390.929 198.831 414.231 19.69 20.711 20.347 28.48 21.661 49.19 13.777-29.128 11.155-435.591 13.121-483.485 5.905-184.461-10.5-355.983-25.591-390.929z" />
<glyph unicode="&#xe92c;" horiz-adv-x="3641" d="M208.584 85.586c0 0-221.149 148.867-208.022 410.993 12.464 262.131 168.647 390.929 198.831 414.231 19.69 20.711 20.347 28.48 21.661 49.19 13.777-29.128 11.155-435.591 13.121-483.485 5.905-184.461-10.5-355.983-25.591-390.929z" />
<glyph unicode="&#xe92d;" horiz-adv-x="1638" d="M809.215-61.046c-5.549 0-10.727 1.508-15.535 4.146l-49.188 29.775c-7.396 4.146-3.699 5.654-1.479 6.409 9.986 3.392 11.834 4.145 22.191 10.175 1.109 0.755 2.588 0.378 3.697-0.377l37.724-22.991c1.479-0.755 3.329-0.755 4.438 0l147.568 87.065c1.479 0.755 2.218 2.262 2.218 4.146v173.755c0 1.884-0.739 3.392-2.218 4.146l-147.568 86.689c-1.479 0.753-3.329 0.753-4.438 0l-147.566-86.689c-1.479-0.755-2.22-2.639-2.22-4.146v-173.755c0-1.508 0.74-3.392 2.22-4.146l40.313-23.744c21.821-11.308 35.504 1.884 35.504 15.076v171.493c0 2.261 1.85 4.523 4.438 4.523h18.862c2.22 0 4.438-1.884 4.438-4.523v-171.493c0-29.776-15.902-47.115-43.641-47.115-8.506 0-15.163 0.002-34.025 9.424l-38.833 22.615c-9.616 5.652-15.533 16.206-15.533 27.514v173.755c0 11.307 5.917 21.86 15.533 27.514l147.566 87.065c9.248 5.278 21.821 5.278 31.068 0l147.566-87.065c9.616-5.654 15.533-16.208 15.533-27.514v-173.755c0-11.308-5.917-21.862-15.533-27.514l-147.566-87.067c-4.808-2.261-10.357-3.392-15.533-3.392zM854.704 58.434c-64.722 0-78.037 30.153-78.037 55.783 0 2.261 1.85 4.523 4.439 4.523h19.231c2.22 0 4.069-1.508 4.069-3.77 2.959-19.976 11.464-29.775 50.668-29.775 31.067 0 44.382 7.16 44.382 24.121 0 9.8-3.699 16.962-52.148 21.862-40.313 4.146-65.462 13.192-65.462 45.982 0 30.529 25.149 48.621 67.311 48.621 47.34 0 70.64-16.584 73.599-52.768 0-1.13-0.37-2.261-1.111-3.392-0.739-0.753-1.848-1.508-2.959-1.508h-19.231c-1.85 0-3.699 1.508-4.069 3.393-4.438 20.729-15.904 27.514-46.23 27.514-34.025 0-38.094-12.061-38.094-21.107 0-10.93 4.808-14.323 50.669-20.354 45.491-6.031 66.941-14.698 66.941-47.113-0.37-33.168-26.999-52.013-73.969-52.013z" />
<glyph unicode="&#xe92e;" horiz-adv-x="1638" d="M351.35 618.52c0 6.784-3.699 13.192-9.616 16.584l-156.814 91.966c-2.588 1.508-5.547 2.261-8.506 2.637h-1.479c-2.959 0-5.917-1.13-8.507-2.637l-156.812-91.966c-5.917-3.392-9.616-9.8-9.616-16.584l0.37-247.252c0-3.393 1.849-6.785 4.808-8.293 2.959-1.884 6.657-1.884 9.246 0l93.2 54.275c5.917 3.392 9.616 9.799 9.616 16.584v115.71c0 6.785 3.698 13.192 9.616 16.584l39.573 23.369c2.959 1.884 6.287 2.639 9.616 2.639s6.658-0.755 9.246-2.639l39.574-23.369c5.917-3.392 9.616-9.799 9.616-16.584v-115.71c0-6.785 3.697-13.192 9.616-16.584l93.2-54.275c2.959-1.884 6.658-1.884 9.616 0 2.959 1.508 4.808 4.899 4.808 8.293l-0.37 247.252z" />
<glyph unicode="&#xe92f;" horiz-adv-x="1638" d="M1105.088 958.869c-2.959 1.508-6.658 1.508-9.246 0-2.959-1.885-4.808-4.9-4.808-8.292v-244.991c0-2.262-1.109-4.523-3.329-6.031-2.22-1.131-4.438-1.131-6.658 0l-39.203 22.991c-5.917 3.392-12.943 3.392-18.861 0l-156.814-92.343c-5.917-3.392-9.616-9.799-9.616-16.584v-184.307c0-6.785 3.699-13.192 9.616-16.584l156.814-92.343c5.917-3.393 12.943-3.393 18.861 0l156.814 92.343c5.917 3.392 9.616 9.799 9.616 16.584v459.451c0 7.161-3.699 13.569-9.616 16.961l-93.57 53.144zM1090.664 489.995c0-1.886-0.739-3.393-2.218-4.146l-53.628-31.661c-1.479-0.755-3.329-0.755-4.808 0l-53.628 31.661c-1.479 0.753-2.218 2.639-2.218 4.146v63.319c0 1.886 0.739 3.393 2.218 4.146l53.628 31.661c1.479 0.755 3.329 0.755 4.808 0l53.628-31.661c1.479-0.753 2.218-2.639 2.218-4.146v-63.319z" />
<glyph unicode="&#xe930;" horiz-adv-x="1638" d="M1626.931 554.824c5.923 3.392 9.248 9.799 9.248 16.584v44.853c0 6.784-3.702 13.191-9.248 16.584l-155.7 91.965c-5.917 3.393-12.943 3.393-18.862 0l-156.812-92.343c-5.917-3.392-9.616-9.799-9.616-16.584v-184.307c0-6.785 3.699-13.192 9.616-16.584l155.703-90.459c5.917-3.392 12.945-3.392 18.492 0l94.31 53.521c2.959 1.508 4.808 4.899 4.808 8.293 0 3.392-1.85 6.784-4.808 8.291l-157.553 92.343c-2.959 1.884-4.808 4.899-4.808 8.293v57.667c0 3.392 1.85 6.784 4.808 8.291l49.188 28.645c2.959 1.884 6.658 1.884 9.616 0l49.188-28.645c2.96-1.884 4.808-4.899 4.808-8.291v-45.229c0-3.392 1.85-6.785 4.808-8.293 2.959-1.884 6.658-1.884 9.616 0l93.197 55.406z" />
<glyph unicode="&#xe931;" horiz-adv-x="1638" d="M1459.397 563.493c1.109 0.753 2.588 0.753 3.699 0l29.956-17.715c1.111-0.755 1.85-1.884 1.85-3.392v-35.43c0-1.508-0.739-2.639-1.85-3.392l-29.956-17.715c-1.111-0.753-2.59-0.753-3.699 0l-29.958 17.715c-1.109 0.753-1.85 1.884-1.85 3.392v35.43c0 1.508 0.74 2.637 1.85 3.392l29.958 17.715z" />
<glyph unicode="&#xe932;" horiz-adv-x="1638" d="M613.568 724.056c-5.919 3.392-12.945 3.392-18.862 0l-155.703-91.59c-5.919-3.392-9.248-9.799-9.248-16.584v-183.554c0-6.784 3.699-13.192 9.248-16.584l155.703-91.588c5.917-3.393 12.943-3.393 18.862 0l155.703 91.588c5.917 3.392 9.246 9.8 9.246 16.584v183.554c0 6.785-3.699 13.192-9.246 16.584l-155.703 91.59z" />
<glyph unicode="&#xe933;" horiz-adv-x="1638" d="M769.642 632.476l-156.444 91.59c-1.479 0.753-3.329 1.508-4.808 1.884l-175.304-306.050c1.479-1.884 3.327-3.392 5.177-4.523l156.444-91.588c4.438-2.639 9.616-3.393 14.424-1.886l164.579 306.805c-1.109 1.508-2.588 2.639-4.068 3.768z" />
<glyph unicode="&#xe934;" horiz-adv-x="1638" d="M770.012 415.742c4.438 2.637 7.767 7.16 9.246 12.061l-171.607 298.512c-4.439 0.753-9.248 0.377-13.315-2.262l-155.333-91.212 167.537-311.328c2.22 0.378 4.808 1.131 7.028 2.262l156.444 91.966z" />
<glyph unicode="&#xe935;" horiz-adv-x="1638" d="M770.010 415.747l-156.073-91.59c-2.218-1.13-4.438-1.884-7.026-2.261l2.959-5.654 173.086 102.142v2.262l-4.438 7.538c-0.74-5.278-4.068-9.8-8.507-12.438z" />
<glyph unicode="&#xe936;" horiz-adv-x="1638" d="M770.010 415.747l-156.073-91.59c-2.218-1.13-4.438-1.884-7.026-2.261l2.959-5.654 173.086 102.142v2.262l-4.438 7.538c-0.74-5.278-4.068-9.8-8.507-12.438z" />
<glyph unicode="&#xe937;" horiz-adv-x="1899" d="M26.695 448c0-268.024 413.056-485.305 922.567-485.305v0c509.511 0 922.57 217.281 922.57 485.305v0c0 268.021-413.060 485.305-922.57 485.305v0c-509.511 0-922.567-217.284-922.567-485.305z" />
<glyph unicode="&#xe938;" horiz-adv-x="1899" d="M949.262-1.273c489.61 0 886.529 201.148 886.529 449.274 0 248.123-396.919 449.274-886.529 449.274s-886.529-201.151-886.529-449.274c0-248.127 396.919-449.274 886.529-449.274z" />
<glyph unicode="&#xe939;" horiz-adv-x="1899" d="M527.935 392.297c40.259 0 70.314 7.424 89.33 22.060 18.813 14.485 31.807 39.581 38.617 74.588 6.35 32.721 3.931 55.568-7.188 67.898-11.369 12.593-35.948 18.98-73.053 18.98h-64.337l-35.667-183.526h52.298zM317.504 166.227c-2.986 0-5.823 1.335-7.721 3.644-1.902 2.306-2.673 5.342-2.102 8.275l94.526 486.346c0.914 4.702 5.035 8.098 9.827 8.098h203.727c64.027 0 111.684-17.385 141.638-51.678 30.115-34.473 39.415-82.66 27.639-143.22-4.792-24.673-13.034-47.587-24.496-68.101-11.475-20.538-26.641-39.541-45.084-56.493-22.076-20.662-47.063-35.644-74.198-44.46-26.705-8.699-61.001-13.11-101.934-13.11h-82.493l-23.558-121.2c-0.914-4.705-5.032-8.102-9.824-8.102h-105.948z" />
<glyph unicode="&#xe93a;" horiz-adv-x="1899" d="M519.557 565.814h56.085c44.784 0 60.34-9.827 65.625-15.683 8.769-9.724 10.424-30.225 4.788-59.285-6.333-32.534-18.072-55.602-34.897-68.555-17.225-13.261-45.227-19.981-83.224-19.981h-40.155l31.777 163.505zM615.761 682.603h-203.73c-9.583 0-17.822-6.794-19.651-16.2l-94.526-486.346c-1.141-5.869 0.4-11.939 4.201-16.554 3.804-4.615 9.47-7.284 15.45-7.284h105.944c9.587 0 17.825 6.794 19.654 16.2l21.983 113.102h74.241c41.984 0 77.328 4.578 105.040 13.604 28.5 9.26 54.721 24.959 77.928 46.662 19.193 17.659 35.003 37.479 46.983 58.918 11.983 21.446 20.592 45.361 25.587 71.081 12.396 63.747 2.326 114.794-29.928 151.712-31.94 36.565-82.133 55.104-149.176 55.104zM463.491 382.288h64.444c42.715 0 74.531 8.045 95.437 24.139 20.909 16.097 35.010 42.962 42.338 80.608 7.011 36.145 3.817 61.651-9.58 76.51-13.414 14.859-40.239 22.29-80.488 22.29h-72.589l-39.561-203.547zM615.761 662.582c61.288 0 105.998-16.084 134.101-48.254 28.099-32.17 36.562-77.074 25.35-134.725-4.615-23.748-12.42-45.461-23.408-65.132-11.002-19.684-25.367-37.683-43.119-54.003-21.156-19.797-44.657-33.906-70.517-42.308-25.86-8.425-58.798-12.62-98.84-12.62h-90.748l-25.13-129.302h-105.944l94.526 486.343h203.73z" />
<glyph unicode="&#xe93b;" horiz-adv-x="1899" d="M1027.954 295.529c-2.99 0-5.823 1.335-7.721 3.644-1.905 2.306-2.676 5.339-2.106 8.275l41.814 215.189c3.978 20.465 2.996 35.154-2.76 41.36-3.524 3.794-14.108 10.157-45.404 10.157h-75.753l-52.572-270.524c-0.914-4.705-5.035-8.102-9.827-8.102h-105.11c-2.99 0-5.823 1.335-7.725 3.644-1.902 2.306-2.673 5.342-2.102 8.275l94.526 486.346c0.914 4.702 5.035 8.098 9.827 8.098h105.11c2.99 0 5.823-1.335 7.725-3.64 1.902-2.309 2.673-5.342 2.102-8.279l-22.811-117.383h81.492c62.082 0 104.179-10.945 128.698-33.462 24.993-22.971 32.791-59.699 23.181-109.178l-43.979-226.321c-0.914-4.705-5.032-8.102-9.827-8.102h-106.779z" />
<glyph unicode="&#xe93c;" horiz-adv-x="1899" d="M968.152 811.905h-105.11c-9.587 0-17.825-6.794-19.654-16.2l-94.526-486.346c-1.141-5.869 0.4-11.939 4.204-16.554s9.47-7.284 15.45-7.284h105.11c9.583 0 17.825 6.794 19.654 16.2l50.997 262.425h67.501c31.243 0 37.8-6.674 38.063-6.961 1.895-2.039 4.388-11.482 0.274-32.638l-41.814-215.189c-1.141-5.869 0.4-11.939 4.204-16.554s9.47-7.284 15.45-7.284h106.779c9.583 0 17.825 6.794 19.654 16.2l43.976 226.321c10.321 53.126 1.492 92.977-26.231 118.457-26.454 24.295-70.768 36.105-135.472 36.105h-69.353l20.498 105.461c1.138 5.869-0.4 11.943-4.204 16.554-3.804 4.615-9.47 7.288-15.45 7.288zM968.152 791.884l-25.13-129.302h93.638c58.918 0 99.558-10.284 121.924-30.826 22.367-20.555 29.067-53.86 20.128-99.898l-43.979-226.317h-106.779l41.814 215.186c4.758 24.479 3.010 41.176-5.252 50.079-8.265 8.903-25.847 13.361-52.739 13.361h-84.008l-54.143-278.625h-105.11l94.526 486.343h105.11z" />
<glyph unicode="&#xe93d;" horiz-adv-x="1899" d="M1354.853 392.297c40.259 0 70.314 7.424 89.33 22.060 18.813 14.482 31.807 39.578 38.62 74.588 6.35 32.721 3.931 55.568-7.191 67.898-11.369 12.593-35.948 18.98-73.053 18.98h-64.337l-35.667-183.526h52.298zM1144.426 166.227c-2.986 0-5.823 1.335-7.721 3.644-1.902 2.306-2.676 5.342-2.106 8.275l94.526 486.346c0.918 4.702 5.035 8.098 9.83 8.098h203.724c64.030 0 111.684-17.385 141.642-51.678 30.115-34.469 39.411-82.657 27.639-143.22-4.798-24.673-13.037-47.587-24.499-68.101-11.475-20.538-26.641-39.541-45.084-56.493-22.076-20.662-47.063-35.644-74.198-44.46-26.705-8.699-61.001-13.11-101.934-13.11h-82.496l-23.548-121.2c-0.918-4.705-5.035-8.102-9.83-8.102h-105.944z" />
<glyph unicode="&#xe93e;" horiz-adv-x="1899" d="M1346.475 565.814h56.085c44.784 0 60.34-9.827 65.625-15.683 8.773-9.724 10.428-30.225 4.788-59.282-6.333-32.537-18.076-55.605-34.897-68.559-17.225-13.261-45.227-19.981-83.224-19.981h-40.152l31.773 163.505zM1442.679 682.603h-203.727c-9.583 0-17.822-6.794-19.651-16.2l-94.526-486.346c-1.141-5.869 0.4-11.939 4.201-16.554 3.804-4.615 9.47-7.284 15.45-7.284h105.944c9.583 0 17.825 6.794 19.654 16.2l21.98 113.102h74.241c41.984 0 77.328 4.578 105.040 13.604 28.5 9.26 54.727 24.963 77.935 46.669 19.193 17.655 34.997 37.473 46.976 58.912 11.983 21.446 20.592 45.361 25.587 71.081 12.396 63.75 2.326 114.797-29.928 151.716-31.94 36.562-82.129 55.101-149.176 55.101zM1290.413 382.288h64.441c42.715 0 74.531 8.045 95.437 24.139 20.912 16.097 35.010 42.962 42.338 80.608 7.014 36.145 3.821 61.651-9.58 76.51-13.414 14.859-40.239 22.29-80.488 22.29h-72.589l-39.558-203.547zM1442.679 662.582c61.288 0 105.998-16.084 134.101-48.254s36.562-77.074 25.35-134.725c-4.615-23.748-12.42-45.461-23.408-65.132-11.002-19.684-25.367-37.683-43.119-54.003-21.156-19.797-44.657-33.906-70.517-42.308-25.86-8.425-58.798-12.62-98.84-12.62h-90.748l-25.126-129.302h-105.944l94.526 486.343h203.727z" />
<glyph unicode="&#xe93f;" horiz-adv-x="1134" d="M3.341 449.112c0-85.547 83.132-165.406 214.197-210.419-26.172-132.398-4.691-239.109 67.061-280.691 73.753-42.737 183.628-13.153 287.914 78.445 101.653-87.9 204.394-122.494 276.078-80.794 73.682 42.86 96.094 156.809 69.197 293.34 136.512 45.351 212.872 113.448 212.872 200.12 0 83.562-83.287 155.854-212.584 200.581 28.956 142.172 4.421 246.294-70.302 289.592-72.039 41.742-175.972 5.36-279.122-84.843-107.309 95.743-210.216 124.974-284.866 81.55-71.97-41.861-92.507-150.512-66.25-285.36-126.639-44.368-214.197-118.292-214.197-201.52z" />
<glyph unicode="&#xe940;" horiz-adv-x="1134" d="M890.693 605.277c-10.385 3.593-21.146 6.992-32.228 10.205 1.821 7.469 3.493 14.842 4.978 22.088 24.396 118.995 8.446 214.858-46.023 246.42-52.227 30.264-137.643-1.291-223.909-76.728-8.294-7.254-16.614-14.934-24.929-22.982-5.541 5.325-11.072 10.472-16.589 15.393-90.408 80.663-181.031 114.655-235.444 83.001-52.178-30.352-67.631-120.472-45.67-233.244 2.12-10.892 4.599-22.016 7.403-33.326-12.827-3.66-25.208-7.559-37.055-11.708-105.995-37.133-173.688-95.33-173.688-155.694 0-62.346 72.669-124.879 183.071-162.797 8.712-2.992 17.751-5.821 27.068-8.507-3.023-12.233-5.654-24.218-7.863-35.909-20.938-110.816-4.586-198.807 47.454-228.968 53.752-31.147 143.963 0.87 231.805 78.026 6.943 6.098 13.911 12.567 20.891 19.346 9.047-8.754 18.081-17.039 27.065-24.811 85.087-73.574 169.122-103.282 221.115-73.038 53.699 31.237 71.149 125.76 48.493 240.763-1.731 8.784-3.745 17.756-6.007 26.889 6.336 1.883 12.556 3.825 18.619 5.845 114.773 38.211 189.448 99.983 189.448 163.163 0 60.583-69.876 119.172-178.006 156.574z" />
<glyph unicode="&#xe941;" horiz-adv-x="1134" d="M865.8 326.335c-5.474-1.821-11.092-3.581-16.816-5.289-12.671 40.306-29.77 83.166-50.697 127.447 19.97 43.227 36.409 85.539 48.725 125.583 10.242-2.977 20.182-6.119 29.761-9.433 92.645-32.048 149.157-79.431 149.157-115.94 0-38.89-61.032-89.373-160.13-122.368zM824.681 244.462c10.018-50.853 11.45-96.829 4.813-132.772-5.963-32.297-17.953-53.829-32.781-62.453-31.55-18.352-99.024 5.503-171.789 68.422-8.342 7.214-16.745 14.914-25.173 23.065 28.209 31.002 56.403 67.044 83.919 107.069 48.399 4.317 94.125 11.371 135.592 21.003 2.042-8.279 3.857-16.397 5.419-24.335zM408.856 52.408c-30.826-10.939-55.378-11.253-70.218-2.655-31.58 18.303-44.708 88.951-26.8 183.72 2.051 10.854 4.493 22.002 7.307 33.398 41.012-9.112 86.402-15.67 134.918-19.621 27.702-39.167 56.711-75.169 85.944-106.691-6.388-6.196-12.75-12.094-19.076-17.652-38.843-34.118-77.769-58.324-112.073-70.498zM264.441 326.573c-48.818 16.765-89.134 38.556-116.768 62.335-24.831 21.369-37.368 42.583-37.368 59.795 0 36.632 54.35 83.355 144.998 115.113 10.999 3.853 22.514 7.485 34.462 10.895 12.527-40.949 28.962-83.762 48.794-127.055-20.089-43.936-36.757-87.431-49.407-128.859-8.518 2.459-16.772 5.049-24.711 7.775zM312.851 657.684c-18.816 96.621-6.32 169.508 25.124 187.798 33.494 19.484 107.558-8.296 185.618-77.945 4.991-4.45 10.001-9.11 15.023-13.931-29.088-31.385-57.831-67.116-85.287-106.052-47.085-4.386-92.157-11.429-133.597-20.863-2.606 10.531-4.914 20.877-6.881 30.993zM744.706 550.532c-9.908 17.194-20.077 33.981-30.446 50.31 31.944-4.057 62.549-9.443 91.29-16.034-8.63-27.788-19.384-56.841-32.043-86.626-9.082 17.325-18.687 34.792-28.801 52.35zM568.596 722.892c19.727-21.474 39.484-45.451 58.915-71.466-19.58 0.928-39.405 1.412-59.392 1.412-19.798 0-39.476-0.473-58.935-1.385 19.45 25.772 39.377 49.718 59.412 71.439zM391.359 550.235c-9.897-17.241-19.324-34.614-28.262-52.019-12.453 29.68-23.109 58.866-31.813 87.046 28.565 6.424 59.027 11.675 90.766 15.656-10.514-16.479-20.768-33.39-30.69-50.679v-0.005zM422.962 293.422c-32.793 3.677-63.712 8.658-92.269 14.905 8.843 28.685 19.733 58.492 32.451 88.812 8.962-17.392 18.426-34.772 28.382-52.052h0.002c10.142-17.605 20.65-34.849 31.434-51.665zM569.779 171.484c-20.27 21.977-40.489 46.286-60.236 72.436 19.169-0.756 38.714-1.144 58.576-1.144 20.406 0 40.579 0.463 60.435 1.35-19.495-26.619-39.18-50.967-58.774-72.643zM773.916 398.684c13.381-30.648 24.661-60.301 33.619-88.496-29.028-6.654-60.369-12.014-93.39-15.996 10.393 16.549 20.652 33.625 30.733 51.189 10.199 17.772 19.883 35.569 29.039 53.303zM707.83 366.852c-15.65-27.267-31.717-53.295-48.029-77.865-29.709-2.135-60.4-3.234-91.683-3.234-31.155 0-61.46 0.972-90.644 2.875-16.968 24.893-33.384 50.998-48.935 77.989h0.003c-15.508 26.917-29.783 54.062-42.717 81.054 12.929 27.056 27.166 54.231 42.587 81.099l-0.005-0.005c15.462 26.941 31.733 52.919 48.545 77.655 29.775 2.262 60.307 3.442 91.163 3.442h0.002c30.996 0 61.566-1.189 91.333-3.471 16.554-24.556 32.716-50.45 48.238-77.394 15.697-27.248 30.118-54.242 43.159-80.716-13.002-26.93-27.391-54.196-43.019-81.43zM796.058 846.76c33.526-19.427 46.564-97.775 25.499-200.515-1.344-6.555-2.856-13.233-4.499-20-41.537 9.63-86.64 16.797-133.864 21.247-27.509 39.364-56.016 75.151-84.631 106.134 7.694 7.436 15.376 14.527 23.026 21.219 73.912 64.634 142.995 90.153 174.469 71.915z" />
<glyph unicode="&#xe942;" horiz-adv-x="1134" d="M568.118 538.534c49.374 0 89.4-40.218 89.4-89.832 0-49.612-40.026-89.832-89.4-89.832s-89.4 40.22-89.4 89.832c0 49.614 40.026 89.832 89.4 89.832z" />
<glyph unicode="&#xe943;" glyph-name="right-arrow" d="M631.164 670.17c16.661 16.662 43.678 16.662 60.339 0l192-192c16.661-16.661 16.661-43.678 0-60.339l-192-192c-16.661-16.661-43.678-16.661-60.339 0s-16.661 43.678 0 60.339l119.164 119.164h-579.661c-23.564 0-42.667 19.102-42.667 42.667s19.103 42.667 42.667 42.667h579.661l-119.164 119.163c-16.661 16.663-16.661 43.677 0 60.34z" />
<glyph unicode="&#xe944;" glyph-name="select-arrowleft" horiz-adv-x="1008" d="M133.245 132.138l673.801-618.135c47.285-44.157 118.211-44.157 165.495 0s47.284 110.376 0 154.533l-579.232 551.908 579.232 551.908c47.284 44.153 47.284 110.381 0 154.534-23.642 22.076-47.285 33.114-82.748 33.114s-59.105-11.038-82.747-33.114l-673.801-618.136c-47.284-55.19-47.284-121.419 0-176.61 0 11.039 0 11.039 0 0z" />
<glyph unicode="&#xe945;" glyph-name="select-arrowright" horiz-adv-x="1008" d="M874.755 308.747l-673.801 618.135c-47.285 44.157-118.211 44.157-165.495 0s-47.284-110.376 0-154.533l579.232-551.908-579.232-551.908c-47.284-44.153-47.284-110.381 0-154.534 23.642-22.076 47.285-33.114 82.748-33.114s59.105 11.038 82.747 33.114l673.801 618.136c47.284 55.19 47.284 121.419 0 176.61 0-11.039 0-11.039 0 0z" />
<glyph unicode="&#xe946;" glyph-name="select-arrowdown" horiz-adv-x="1593" d="M862-5.759l618.135 673.801c44.157 47.285 44.157 118.211 0 165.495s-110.376 47.284-154.533 0l-551.908-579.232-551.908 579.232c-44.153 47.284-110.381 47.284-154.534 0-22.076-23.642-33.114-47.285-33.114-82.748s11.038-59.105 33.114-82.747l618.136-673.801c55.19-47.284 121.419-47.284 176.61 0-11.039 0-11.039 0 0 0z" />
<glyph unicode="&#xe947;" glyph-name="select-arrowtop" horiz-adv-x="1593" d="M731 901.759l-618.135-673.801c-44.157-47.285-44.157-118.211 0-165.495s110.376-47.284 154.533 0l551.908 579.232 551.908-579.232c44.153-47.284 110.381-47.284 154.534 0 22.076 23.642 33.114 47.285 33.114 82.748s-11.038 59.105-33.114 82.747l-618.136 673.801c-55.19 47.284-121.419 47.284-176.61 0 11.039 0 11.039 0 0 0z" />
<glyph unicode="&#xe948;" glyph-name="to-top" d="M183.163 289.83c-16.662 16.661-16.662 43.678 0 60.339l298.667 298.667c16.661 16.662 43.678 16.662 60.339 0l298.667-298.667c16.661-16.661 16.661-43.678 0-60.339s-43.678-16.661-60.339 0l-268.497 268.497-268.497-268.497c-16.663-16.661-43.677-16.661-60.34 0z" />
<glyph unicode="&#xe949;" glyph-name="twitter" horiz-adv-x="1178" d="M1177.149 860.149c0.005 9.044-2.381 17.927-6.927 25.746s-11.080 14.294-18.939 18.765c-7.864 4.472-16.768 6.78-25.81 6.69s-17.9-2.575-25.672-7.202c-29.967-17.837-62.234-31.497-95.898-40.602-48.077 41.255-109.399 63.831-172.749 63.6-69.499-0.080-136.248-27.166-186.153-75.54s-79.053-114.247-81.295-183.711c-137.014 21.849-261.192 93.362-348.856 200.902-5.282 6.409-12.027 11.453-19.668 14.708s-15.951 4.624-24.232 3.993c-8.276-0.681-16.262-3.368-23.266-7.829s-12.816-10.559-16.934-17.771c-21.118-36.854-33.248-78.17-35.402-120.591s5.726-84.754 23.002-123.558l-0.1-0.1c-7.764-4.782-14.173-11.476-18.611-19.443s-6.758-16.938-6.739-26.058c-0.094-7.522 0.357-15.042 1.35-22.5 5.23-64.423 33.781-124.726 80.3-169.598-3.156-6.016-5.082-12.595-5.666-19.359s0.186-13.578 2.266-20.045c20.281-63.186 63.411-116.531 120.95-149.596-58.458-22.605-121.578-30.49-183.8-22.953-11.516 1.444-23.182-1.065-33.083-7.122s-17.45-15.299-21.408-26.209c-3.959-10.911-4.091-22.84-0.377-33.838s11.056-20.403 20.82-26.68c107.013-68.925 231.612-105.569 358.9-105.549 144.347-1.623 285.183 44.503 400.603 131.2 115.415 86.702 198.948 209.116 237.594 348.2 18.079 60.589 27.31 123.47 27.402 186.698 0 3.35 0 6.8-0.051 10.25 26.732 28.829 47.442 62.705 60.913 99.641s19.436 76.189 17.536 115.459zM1007.852 695.699c-8.458-10.001-12.739-22.876-11.95-35.95 0.502-8.448 0.451-16.947 0.451-24.95-0.108-53.429-7.936-106.563-23.25-157.75-31.565-118.342-101.934-222.672-199.828-296.272-97.9-73.605-217.667-112.225-340.121-109.676-43.987-0.015-87.822 5.156-130.6 15.396 54.549 17.582 105.553 44.682 150.65 80.051 8.306 6.543 14.385 15.493 17.402 25.62 3.017 10.132 2.826 20.951-0.549 30.971s-9.766 18.744-18.298 24.986c-8.532 6.241-18.787 9.692-29.357 9.876-42.556 0.66-83.193 17.812-113.35 47.846 7.65 1.449 15.25 3.251 22.8 5.402 11.060 3.149 20.738 9.928 27.477 19.246 6.739 9.313 10.146 20.628 9.672 32.118s-4.799 22.487-12.282 31.217c-7.482 8.735-17.686 14.689-28.967 16.922-24.702 4.874-47.946 15.386-67.927 30.71-19.98 15.322-36.156 35.046-47.273 57.638 9.253-1.263 18.566-2.047 27.9-2.35 11.089-0.167 21.944 3.196 30.995 9.605s15.83 15.53 19.355 26.045c3.378 10.611 3.204 22.033-0.495 32.536s-10.723 19.513-20.005 25.664c-22.52 15.003-40.968 35.358-53.69 59.241s-19.323 50.549-19.21 77.608c0 3.4 0.1 6.8 0.3 10.15 114.753-107.021 263.594-170.109 420.298-178.15 7.91-0.311 15.79 1.179 23.040 4.357s13.681 7.964 18.811 13.993c5.079 6.088 8.673 13.271 10.506 20.984 1.828 7.713 1.843 15.746 0.041 23.465-2.924 12.218-4.419 24.736-4.449 37.3 0.046 43.8 17.469 85.793 48.44 116.764s72.965 48.391 116.762 48.437c22.538 0.060 44.841-4.551 65.5-13.544 20.664-8.993 39.24-22.172 54.548-38.706 5.908-6.353 13.338-11.089 21.591-13.759s17.055-3.184 25.559-1.493c21.033 4.093 41.764 9.606 62.049 16.5-13.834-28.312-31.519-54.576-52.547-78.048z" />
</font>
</defs>
</svg>
