<svg xmlns="http://www.w3.org/2000/svg">
    <symbol id="up-arrow" viewBox="0 0 16 16">
        <g>
        <path fill="#867e7e4b" d="M3 9.4l5-5 5 5-1.4 1.4-3.6-3.6-3.6 3.6z"></path>
        <path fill="#867e7e4b" d="M15 8c0 3.9-3.1 7-7 7s-7-3.1-7-7 3.1-7 7-7 7 3.1 7 7zM16 8c0-4.4-3.6-8-8-8s-8 3.6-8 8 3.6 8 8 8 8-3.6 8-8v0z"></path>
        </g>
    </symbol>
    <symbol id="up-arrow-2" viewBox="0 0 32 32">

   <g id="Page-2-Copy" stroke="none" stroke-width="1" fill="#376b5744" fill-rule="evenodd">
            <g id="14" stroke="#979797" fill-rule="nonzero">
                <path d="M11,22 C11,22.5522847 11.4477153,23 12,23 L20,23 C20.5522847,23 21,22.5522847 21,22 C21,21.4477153 20.5522847,21 20,21 L12,21 L13,22 L13,14 C13,13.4477153 12.5522847,13 12,13 C11.4477153,13 11,13.4477153 11,14 L11,22 Z" id="Rectangle-349" stroke="none" fill="#376b5744" transform="translate(16.000000, 18.000000) rotate(-225.000000) translate(-16.000000, -18.000000) "></path>
                <path d="M32,16 C32,24.836556 24.836556,32 16,32 C7.163444,32 0,24.836556 0,16 C0,7.163444 7.163444,0 16,0 C24.836556,0 32,7.163444 32,16 Z M2,16 C2,23.7319865 8.2680135,30 16,30 C23.7319865,30 30,23.7319865 30,16 C30,8.2680135 23.7319865,2 16,2 C8.2680135,2 2,8.2680135 2,16 Z" id="Oval-1" stroke="none" fill="#376b5744"></path>
            </g>
        </g>
        </symbol>         

    <symbol id="up-arrow-circle" viewBox="0 0 281.25 281.25">
        <g id="layer1" transform="translate(6984.8564,-3106.6404)"><path d="m -6844.2302,3145.4807 c -56.159,-1e-4 -101.7883,45.6257 -101.7883,101.7847 0,56.1591 45.6293,101.7847 101.7883,101.7847 56.1591,0 101.7847,-45.6257 101.7847,-101.7847 0,-56.159 -45.6256,-101.7847 -101.7847,-101.7847 z m 0,9.375 c 51.0925,0 92.4097,41.3173 92.4097,92.4097 0,51.0924 -41.3172,92.4097 -92.4097,92.4097 -51.0924,0 -92.4133,-41.3172 -92.4133,-92.4097 0,-51.0924 41.3209,-92.4098 92.4133,-92.4097 z m -0.1062,66.8885 a 4.6875,4.6875 0 0 0 -0.4907,0.075 4.6875,4.6875 0 0 0 -0.6189,0.097 4.6875,4.6875 0 0 0 -0.5402,0.2087 4.6875,4.6875 0 0 0 -0.5877,0.26 4.6875,4.6875 0 0 0 -0.4743,0.3479 4.6875,4.6875 0 0 0 -0.4229,0.3095 l -43.5645,41.6711 a 4.6875,4.6875 0 0 0 -0.1465,6.6266 4.6875,4.6875 0 0 0 6.6266,0.1465 l 40.3235,-38.5693 40.3235,38.5693 a 4.6875,4.6875 0 0 0 6.6266,-0.1465 4.6875,4.6875 0 0 0 -0.1465,-6.6266 l -43.5645,-41.6711 a 4.6875,4.6875 0 0 0 -0.4229,-0.3095 4.6875,4.6875 0 0 0 -0.4743,-0.3479 4.6875,4.6875 0 0 0 -0.5841,-0.2581 4.6875,4.6875 0 0 0 -0.5438,-0.2106 4.6875,4.6875 0 0 0 -0.6189,-0.097 4.6875,4.6875 0 0 0 -0.4907,-0.075 4.6875,4.6875 0 0 0 -0.1044,0.011 4.6875,4.6875 0 0 0 -0.1044,-0.011 z" id="circle1049" style="color:#000000;fill:#3d3d3d;fill-opacity:1;fill-rule:evenodd;stroke-linecap:round;stroke-linejoin:round;-inkscape-stroke:none"/></g>
    </symbol>
</svg>

